<svg xmlns="http://www.w3.org/2000/svg" viewBox="0 0 434.19496 207.15265">
  <defs>
    <style>
      .abbb6a83-c665-4879-87f7-2a07b6ca824e {
        fill: #003F94;
      }
    </style>
  </defs>
  <g id="a6064457-308d-4c8f-8ffe-4856b15c3a60" data-name="Layer 2">
    <g id="bbca6841-8bdc-4274-92bf-cf7bdabad5b3" data-name="Layer 1">
      <g>
        <g>
          <path class="abbb6a83-c665-4879-87f7-2a07b6ca824e" d="M128.9569,166.06019c39.76441,13.62586,86.31657-12.57645,116.62315-16.06364,59.9622-9.255,83.87377,24.017,113.47354,40.479,19.94654,9.83058,49.35046,11.27389,73.58979-3.70135-13.10884,15.006-44.09067,25.57835-75.77169,15.40273-29.54657-9.84635-51.96932-47.08748-114.07547-37.50609C209.63921,169.99065,160.86525,187.28152,128.9569,166.06019Z"/>
          <path class="abbb6a83-c665-4879-87f7-2a07b6ca824e" d="M31.5645,150.8407c32.78477,22.17114,69.36881,41.52,109.15809,41.393,28.26158-.34195,77.81839-9.48131,104.29967-17.83324C224.4636,190.064,177.85719,206.63891,136.859,207.15265,93.19575,204.34571,57.06736,183.96846,31.5645,150.8407Z"/>
          <path class="abbb6a83-c665-4879-87f7-2a07b6ca824e" d="M225.247,146.05937c25.16634-13.71681,52.97783-29.22456,97.208-11.6514,39.18909,16.31145,58.44953,27.464,79.17387,21.89792,31.89419-8.64268,23.33863-37.61652,4.12116-38.11579-10.68466-.38991-20.13479,9.56026-11.93421,23.51172-19.5576-19.28753,12.0378-43.04611,32.04757-23.79,13.39079,12.80164,11.179,36.65293-10.565,47.83606-52.53795,26.64005-92.27009-36.55864-154.02455-28.23232C247.57432,139.27036,234.25515,144.0257,225.247,146.05937Z"/>
        </g>
        <g>
          <path class="abbb6a83-c665-4879-87f7-2a07b6ca824e" d="M31.186,167.1696a6.55733,6.55733,0,0,0-.7499,3.74151,7.47164,7.47164,0,0,0,2.66621,5.03791c.09462.07912.19784.14231.29669.21476-8.49892.85433-17.97026,4.10594-24.75841,6.46347C5.25521,183.80376,1.47773,185.11338,0,185.259a27.6564,27.6564,0,0,0,1.01581-5.64753,29.29843,29.29843,0,0,1,1.51095-7.4805,7.50778,7.50778,0,0,1,3.87349-4.27722,23.20149,23.20149,0,0,0,8.8892-6.38716,16.78361,16.78361,0,0,0,3.46209-8.0471,32.19406,32.19406,0,0,0-.14033-9.96023,20.79969,20.79969,0,0,1-.213-2.57809,17.035,17.035,0,0,1,1.45232-7.47989,16.8366,16.8366,0,0,1,4.66424-6.05272c1.2491,2.23625,4.68311,8.2911,10.53028,17.96719a37.65437,37.65437,0,0,0,7.95515,9.48334,27.07,27.07,0,0,0,5.25836,3.47416c-1.04579.08147-2.02736.1337-2.88115.14047C37.51789,158.48132,33.32163,163.21205,31.186,167.1696Z"/>
          <path class="abbb6a83-c665-4879-87f7-2a07b6ca824e" d="M123.60989,55.12317c-.2979-.43163-.67157-.8702-.9878-1.30389,2.95387,1.67644,6.26789,3.14617,8.79316,3.12965,5.24074-.03649,11.09135,3.99577,12.22343,13.298a27.95193,27.95193,0,0,1,.20694,3.516c-.01423,2.13923.09462,4.73661.24577,7.56515.16293,3.03114.37483,6.329.549,9.64827.16485,3.14187.29119,6.292.30467,9.2376a62.38216,62.38216,0,0,1-.39417,8.03289,14.3625,14.3625,0,0,1-1.44831,5.12645C143.492,86.74589,129.521,63.65107,123.60989,55.12317Z"/>
          <path class="abbb6a83-c665-4879-87f7-2a07b6ca824e" d="M40.62717,46.0833c3.16651,4.66927,11.3553,16.70849,16.15991,23.45452A141.75841,141.75841,0,0,0,74.8017,90.40339C82.20033,97.6918,86.666,102.09,89.29511,116.91291c1.9426,10.94946-.17835,20.23727-6.30824,27.61028-10.292,12.37839-29.09084,15.77793-37.59307,15.84628-5.54009.04488-9.74364,2.6483-12.48592,7.7286a4.63018,4.63018,0,0,0-.5214,2.64455,5.56284,5.56284,0,0,0,4.77947,4.94577c7.00818.9566,69.13864,8.36636,91.80988-24.50442,27.22335-39.46835,1.5472-82.65493-6.97175-94.95016A97.23347,97.23347,0,0,0,104.39246,37.6935,214.99548,214.99548,0,0,0,70.54466,15.115c3.69241,5.1124,5.62165,11.4663,4.82868,16.3371a9.013,9.013,0,0,1-4.08027,6.50769C65.8807,41.28853,50.98492,47.75238,40.62717,46.0833ZM82.00866,58.89355A88.11056,88.11056,0,0,0,94.26438,66.2632c-1.78453.37345-4.22039.86279-6.99113,1.37127-2.58653.47317-8.31812-2.80214-15.71992-8.99111l-.001-.00084c-2.372-1.98331-3.99338-3.50188-4.00319-3.51008L63.83158,50.4705A61.47574,61.47574,0,0,1,82.00866,58.89355ZM100.5061,92.41622l7.4202,12.47179C109.14665,111.83725,91.394,124.66,91.394,124.66a22.34668,22.34668,0,0,0,4.046-15.3897C94.32206,100.4313,100.5061,92.41622,100.5061,92.41622Z"/>
          <path class="abbb6a83-c665-4879-87f7-2a07b6ca824e" d="M15.24894,12.34486a24.30435,24.30435,0,0,1,1.92469,6.04755c.75386,5.15525,8.94975,15.68293,18.26617,23.47281,8.23506,6.8857,28.7033-1.80386,34.82965-5.57139A7.04048,7.04048,0,0,0,73.44423,31.137c.77393-4.76061-1.51282-11.46306-5.55936-16.29707a19.07535,19.07535,0,0,0-2.42951-2.41658C60.47815,8.26166,53.13163,5.99284,45.35517,3.59057c-2.193-.67852-4.42767-1.3685-6.66533-2.12078-8.40256-2.80645-11.97563-.90746-13.15144.078A48.7658,48.7658,0,0,0,30.22671,6.059,36.53177,36.53177,0,0,0,34.13676,8.93c5.58554,3.50162,9.37591,18.69485,9.52524,19.31432l.40475,1.64991-1.63038-.48008c-.65341-.19144-16.02058-4.75465-20.66417-8.64042l-.30668-.26663a8.73538,8.73538,0,0,1-2.81792-3.9828C18.29638,15.547,17.96545,14.62272,15.24894,12.34486ZM44.95723,20.029a5.03723,5.03723,0,0,1-.61587-7.42011,5.04137,5.04137,0,0,1,7.41509-.71152c2.43439,2.0355,2.11663,6.39772.23319,8.65025C50.23835,22.6421,47.87317,22.46715,44.95723,20.029Z"/>
          <path class="abbb6a83-c665-4879-87f7-2a07b6ca824e" d="M45.623,13.6805a2.26024,2.26024,0,1,1,.28328,3.1848A2.26052,2.26052,0,0,1,45.623,13.6805Z"/>
        </g>
        <g>
          <path class="abbb6a83-c665-4879-87f7-2a07b6ca824e" d="M156.33438,121.90526a11.51026,11.51026,0,0,1-.14356-6.59375,12.96049,12.96049,0,0,1,3.4411-5.867,14.24123,14.24123,0,0,1,13.27323-3.66437,12.91842,12.91842,0,0,1,5.97693,3.26834,11.55909,11.55909,0,0,1,3.26059,5.7334,12.04872,12.04872,0,0,1-.24961,6.5798,13.49611,13.49611,0,0,1-3.51047,5.64542,13.5883,13.5883,0,0,1-12.53768,3.46084,13.59257,13.59257,0,0,1-5.90748-3.04672A12.02591,12.02591,0,0,1,156.33438,121.90526Zm18.26132-5.562a4.90532,4.90532,0,0,0-1.4736-2.44183,5.98649,5.98649,0,0,0-5.59955-1.32557,5.99091,5.99091,0,0,0-2.67078,1.52189,5.59679,5.59679,0,0,0-1.48938,2.501,5.06321,5.06321,0,0,0,.027,2.841,5.26419,5.26419,0,0,0,1.50766,2.4295,5.67109,5.67109,0,0,0,2.5582,1.3548,5.89477,5.89477,0,0,0,2.99814-.0679,5.7474,5.7474,0,0,0,2.53582-1.46222,5.95534,5.95534,0,0,0,1.52936-2.4838A5.07679,5.07679,0,0,0,174.5957,116.34322ZM170.83227,94.137a2.89191,2.89191,0,0,1-.48291,2.44879,3.82018,3.82018,0,0,1-2.25223,1.55423,3.6626,3.6626,0,0,1-2.67791-.26791,3.00278,3.00278,0,0,1-1.63282-1.94238,3.03686,3.03686,0,0,1,.39719-2.5138,3.62651,3.62651,0,0,1,2.23032-1.60177,3.79009,3.79009,0,0,1,2.7854.25763A3.07533,3.07533,0,0,1,170.83227,94.137ZM168.554,94.44a1.22041,1.22041,0,0,0-.671-.64877,1.519,1.519,0,0,0-.99866-.05817,1.358,1.358,0,0,0-.8428.59988,1.1603,1.1603,0,0,0-.1441.95343,1.14712,1.14712,0,0,0,.62069.748,1.42881,1.42881,0,0,0,1.045.09738,1.3321,1.3321,0,0,0,.85461-.69012A1.2075,1.2075,0,0,0,168.554,94.44Zm13.70926,3.91736a4.48021,4.48021,0,0,1-.23437,2.68344,6.26561,6.26561,0,0,1-1.646,2.37613,5.66416,5.66416,0,0,1-2.49246,1.34622,5.80567,5.80567,0,0,1-2.86267-.00549,5.65886,5.65886,0,0,1-2.45111-1.30658,4.74072,4.74072,0,0,1-1.31168-5.00916,5.496,5.496,0,0,1,1.53467-2.35425,5.84266,5.84266,0,0,1,2.62768-1.382,6.24313,6.24313,0,0,1,2.96091-.01679A5.52123,5.52123,0,0,1,180.9,96.00563,4.49841,4.49841,0,0,1,182.2633,98.35735Zm-3.64706.74441a1.66022,1.66022,0,0,0-.94049-1.14526,2.25182,2.25182,0,0,0-1.57285-.17221,2.0848,2.0848,0,0,0-1.34854.90247,1.80656,1.80656,0,0,0-.22687,1.448,1.84214,1.84214,0,0,0,.90253,1.1847,2.06468,2.06468,0,0,0,1.588.19812,2.13054,2.13054,0,0,0,1.29511-.91806A1.82675,1.82675,0,0,0,178.61624,99.10176Z"/>
          <path class="abbb6a83-c665-4879-87f7-2a07b6ca824e" d="M187.33926,124.3048q-2.38724-10.32542-4.78165-20.64929a1.40958,1.40958,0,0,1,.23334-1.15537,1.65291,1.65291,0,0,1,1.03506-.6983q4.95-1.12143,9.92173-2.115a13.69391,13.69391,0,0,1,6.87951.36035,12.79356,12.79356,0,0,1,5.63834,3.50912,10.7185,10.7185,0,0,1,2.78921,5.66242,11.06425,11.06425,0,0,1-.78128,6.25665,13.42544,13.42544,0,0,1-3.92807,5.19153,13.2801,13.2801,0,0,1-5.9017,2.804q-4.633.92641-9.24686,1.9711a1.51318,1.51318,0,0,1-1.16818-.19489A1.45268,1.45268,0,0,1,187.33926,124.3048Zm9.783-8.16254a4.059,4.059,0,0,0,2.04471-1.07281,4.92126,4.92126,0,0,0,1.28839-2.09717,5.24152,5.24152,0,0,0,.15188-2.61957,5.11266,5.11266,0,0,0-1.07321-2.33557,4.87185,4.87185,0,0,0-1.98483-1.47034,4.07954,4.07954,0,0,0-2.35651-.22561q-1.68319.33558-3.36413.68606a.56136.56136,0,0,0-.38013.25671.62529.62529,0,0,0-.06924.47461q.90486,4.287,1.80841,8.57425a.63381.63381,0,0,0,.25106.40726.54512.54512,0,0,0,.44108.08371Q195.49971,116.46587,197.12222,116.14226Z"/>
          <path class="abbb6a83-c665-4879-87f7-2a07b6ca824e" d="M210.87155,109.06319a11.56941,11.56941,0,0,1,.80255-6.54178,12.90471,12.90471,0,0,1,4.22168-5.30057,14.08406,14.08406,0,0,1,13.58075-1.69152,12.88513,12.88513,0,0,1,5.41464,4.10192,11.59886,11.59886,0,0,1,2.38724,6.14484,12.09427,12.09427,0,0,1-1.19083,6.47461,13.46135,13.46135,0,0,1-4.26654,5.0752,13.4294,13.4294,0,0,1-12.82889,1.59747,13.53887,13.53887,0,0,1-5.36969-3.87656A12.09311,12.09311,0,0,1,210.87155,109.06319Zm18.75287-2.8378a4.92164,4.92164,0,0,0-1.0998-2.63007,5.87491,5.87491,0,0,0-2.35971-1.73538,5.78828,5.78828,0,0,0-2.95913-.391,5.91342,5.91342,0,0,0-2.84473,1.11624,5.57588,5.57588,0,0,0-1.82276,2.25684,5.088,5.088,0,0,0-.38037,2.81415,5.289,5.289,0,0,0,1.13419,2.6232,5.648,5.648,0,0,0,2.32123,1.71325,5.837,5.837,0,0,0,2.95831.36972,5.68377,5.68377,0,0,0,2.70432-1.0773,5.93913,5.93913,0,0,0,1.8612-2.23468A5.09791,5.09791,0,0,0,229.62442,106.22539Zm-.517-22.51614a2.89945,2.89945,0,0,1-.82672,2.35247,3.78569,3.78569,0,0,1-2.43931,1.21,3.628,3.628,0,0,1-2.59622-.65482,3.00861,3.00861,0,0,1-1.32763-2.15927,3.04623,3.04623,0,0,1,.75113-2.42892,3.59144,3.59144,0,0,1,2.424-1.26,3.75679,3.75679,0,0,1,2.704.66A3.0823,3.0823,0,0,1,229.10739,83.70925Zm-2.28562-.0315a1.21951,1.21951,0,0,0-.56723-.73944,1.502,1.502,0,0,0-.97436-.20376,1.34494,1.34494,0,0,0-.91522.47177,1.164,1.164,0,0,0-.27848.92221,1.14889,1.14889,0,0,0,.50336.83026,1.41885,1.41885,0,0,0,1.01419.24838,1.323,1.323,0,0,0,.93991-.55841A1.21242,1.21242,0,0,0,226.82177,83.67775Zm12.93552,5.86563a4.49923,4.49923,0,0,1-.61649,2.62195,6.24716,6.24716,0,0,1-1.96267,2.11215,5.60175,5.60175,0,0,1-2.648.96912,5.75046,5.75046,0,0,1-2.81748-.42029,5.63624,5.63624,0,0,1-2.2251-1.64889,4.76229,4.76229,0,0,1-.57208-5.14627,5.48528,5.48528,0,0,1,1.84839-2.10706,5.79855,5.79855,0,0,1,2.7854-.98563,6.19091,6.19091,0,0,1,2.91828.41413,5.50336,5.50336,0,0,1,2.28472,1.66723A4.50854,4.50854,0,0,1,239.75729,89.54338Zm-3.69922.20838a1.66311,1.66311,0,0,0-.76166-1.26962,2.23477,2.23477,0,0,0-1.52408-.39875,2.06885,2.06885,0,0,0-1.45733.696,1.81013,1.81013,0,0,0-.43131,1.39966,1.85044,1.85044,0,0,0,.71854,1.30413,2.0479,2.0479,0,0,0,1.53509.42661,2.11519,2.11519,0,0,0,1.40717-.72025A1.83029,1.83029,0,0,0,236.05807,89.75176Z"/>
          <path class="abbb6a83-c665-4879-87f7-2a07b6ca824e" d="M242.62234,117.3185a1.43188,1.43188,0,0,1-1.06891-.34943,1.468,1.468,0,0,1-.52734-1.05218q-.86778-10.56171-1.74286-21.12293a1.472,1.472,0,0,1,.3739-1.14187,1.53512,1.53512,0,0,1,1.06494-.5369q2.5194-.19611,5.04074-.36029a1.533,1.533,0,0,1,1.13013.37921,1.48024,1.48024,0,0,1,.53571,1.07709q.48074,7.743.95776,15.48633,4.917-.30084,9.84-.47428a1.71715,1.71715,0,0,1,1.17752.37644,1.30947,1.30947,0,0,1,.51522,1.02222q.06807,2.1806.1359,4.36123a1.28959,1.28959,0,0,1-.44333,1.01859,1.68137,1.68137,0,0,1-1.128.45437q-7.48023.26362-14.94723.827Q243.07944,117.30034,242.62234,117.3185Z"/>
          <path class="abbb6a83-c665-4879-87f7-2a07b6ca824e" d="M274.8699,114.71456q.08889-10.56272.17047-21.12567a1.56151,1.56151,0,0,1,1.65894-1.57489q2.56387.03269,5.12747.09838a1.54979,1.54979,0,0,1,1.129.499,1.53269,1.53269,0,0,1,.43469,1.13778q-.30428,10.55888-.61588,21.1174a1.55794,1.55794,0,0,1-.47375,1.14719,1.47524,1.47524,0,0,1-1.08435.40295q-2.40689-.0617-4.814-.09252a1.50309,1.50309,0,0,1-1.12036-.44507A1.59877,1.59877,0,0,1,274.8699,114.71456Z"/>
          <path class="abbb6a83-c665-4879-87f7-2a07b6ca824e" d="M310.87527,93.88863a1.937,1.937,0,0,1,1.90256,1.65494q1.45917,6.2286,2.7875,12.46515,2.74878-5.52256,5.6196-11.00721.11856-.19468.2374-.38928l-.00449.03391a2.59683,2.59683,0,0,1,2.91156-1.19236q2.177.29138,4.35187.60694a1.36418,1.36418,0,0,1,.80728.44937,1.27,1.27,0,0,1,.2551,1.10513,2.99057,2.99057,0,0,1-.42533,1.09265q-4.95593,9.22848-9.57275,18.56849a6.39728,6.39728,0,0,1-.81229,1.32754,1.46491,1.46491,0,0,1-1.2676.46826q-3.16517-.39281-6.33481-.73129a1.07328,1.07328,0,0,1-.92356-.65421,6.71456,6.71456,0,0,1-.52911-1.41348q-1.17993-4.64625-2.4407-9.286-2.04035,4.33026-4.00672,8.681a7.4669,7.4669,0,0,1-.74069,1.22464,1.12639,1.12639,0,0,1-.92575.51456q-1.6674-.11783-3.33521-.2208-1.59589-.13159-3.19275-.24945a1.52382,1.52382,0,0,1-.94863-.63214,4.87392,4.87392,0,0,1-.67984-1.65442q-2.78682-9.94643-5.93085-19.85025a3.27634,3.27634,0,0,1-.18073-1.08072,1.34393,1.34393,0,0,1,.47248-1.07309,1.32032,1.32032,0,0,1,.85626-.32769q2.18885.09511,4.37707.21426a3.34541,3.34541,0,0,1,1.59052.40173,2.90931,2.90931,0,0,1,.9736,1.27216q.0807.2134.16123.42676,1.8441,5.92524,3.5563,11.86624,2.42162-5.901,4.96509-11.77188a1.72267,1.72267,0,0,1,.85147-.98847,2.51155,2.51155,0,0,1,1.394-.244Q308.7854,93.68113,310.87527,93.88863Z"/>
          <path class="abbb6a83-c665-4879-87f7-2a07b6ca824e" d="M325.65716,118.75225a3.55451,3.55451,0,0,1,.35968-1.11985c.18366-.35818.29047-.55722.3216-.6q5.31943-9.07233,11.02734-17.99985A2.50648,2.50648,0,0,1,338.533,98.088a3.19346,3.19346,0,0,1,1.61022-.16092q1.51887.26583,3.03629.54346,1.14742.20988,2.29395.4266a2.9113,2.9113,0,0,1,1.49829.78049,2.24367,2.24367,0,0,1,.64389,1.21829q2.26176,10.37477,4.10013,20.75354c-.00184.11872.017.36524.058.73954a3.24534,3.24534,0,0,1-.0441,1.037,1.40372,1.40372,0,0,1-1.694,1.12137q-2.37043-.5088-4.74551-.98669a2.78426,2.78426,0,0,1-1.18115-.50095,1.20275,1.20275,0,0,1-.49936-.8566q-.20691-1.80468-.42432-3.60974-3.91662-.75527-7.84427-1.427-.83735,1.6132-1.66492,3.22958a1.20828,1.20828,0,0,1-.75061.62925,2.65235,2.65235,0,0,1-1.26117.0563q-2.421-.39445-4.84579-.757C325.93228,120.05153,325.544,119.5295,325.65716,118.75225Zm15.02863-6.58371q1.161.21212,2.32095.43164-.65551-4.26562-1.3732-8.53174-2.1459,3.74605-4.2352,7.51312Q339.043,111.86776,340.68579,112.16854Z"/>
          <path class="abbb6a83-c665-4879-87f7-2a07b6ca824e" d="M379.84149,130.68761a1.44031,1.44031,0,0,1-.50971.76794.92472.92472,0,0,1-.78.1832q-3.0763-.9-6.163-1.746a1.09587,1.09587,0,0,1-.73566-.67267q-1.41064-3.84132-2.90942-7.675-3.30885,2.54722-6.53888,5.14987a1.01174,1.01174,0,0,1-.5824.35535,1.57477,1.57477,0,0,1-.74685-.0068q-2.46186-.60585-4.92954-1.17777a1.38842,1.38842,0,0,1-.90353-.5809,1.31938,1.31938,0,0,1-.14374-1.04477q2.34306-10.29954,4.679-20.60074a1.25551,1.25551,0,0,1,.61805-.85428,1.49569,1.49569,0,0,1,1.11322-.13455q2.62476.60819,5.24365,1.25259a1.48221,1.48221,0,0,1,.91083.63459,1.25379,1.25379,0,0,1,.19061,1.03033q-1.10825,4.45308-2.218,8.90585,5.11437-3.73773,10.40943-7.34045a2.58061,2.58061,0,0,1,2.36718-.06549q2.79882.79692,5.58866,1.63574l-.03681-.011a.81548.81548,0,0,1,.55322,1.06733,1.85568,1.85568,0,0,1-.74725.93423q-4.198,2.93119-8.2832,5.94852,2.41008,6.61817,4.56842,13.25348A1.41049,1.41049,0,0,1,379.84149,130.68761Z"/>
        </g>
        <path class="abbb6a83-c665-4879-87f7-2a07b6ca824e" d="M220.58878,49.60157c-1.86262-3.89556-5.25729-7.40356-8.18683-10.24774-.77012-.74677-1.50759-1.449-2.17627-2.09922-5.15474-5.01759-12.03349-10.12244-17.803-11.97742a2.36644,2.36644,0,0,0-1.06331-2.82776,2.49,2.49,0,0,0-3.23747.88007c-.03836.0664-.06165.13754-.09292.20635-5.4042-2.653-11.6215-7.31808-13.89013-9.93633a5.23244,5.23244,0,0,0-1.14934-1.09371c-.98247-.54059.33467,2.51674.33467,2.51674s1.2122,2.48727,3.12657,6.04388q-.87018-.91361-1.88475-1.95213c-1.88984-1.92671-4.13718-4.13634-6.65743-6.38409-1.26008-1.124-2.59178-2.25548-3.99435-3.34471A37.9052,37.9052,0,0,0,159.463,6.34567a15.4168,15.4168,0,0,0-2.46517-1.16212,5.855,5.855,0,0,0-2.70752-.4026,2.84046,2.84046,0,0,0-1.30273.49749,3.0622,3.0622,0,0,0-.88274,1.05294,6.53985,6.53985,0,0,0-.63613,2.53032,21.29468,21.29468,0,0,0,.31215,4.86413c.25648,1.52569.556,2.95717.89083,4.26281.65119,2.61642,1.32526,4.7594,1.79522,6.259.491,1.49218.7713,2.34446.7713,2.34446s-.26642-.85718-.7325-2.357c-.44557-1.50626-1.08412-3.65859-1.69057-6.28021-.313-1.30911-.58807-2.74044-.81779-4.262a21.0225,21.0225,0,0,1-.23148-4.80432,6.23778,6.23778,0,0,1,.63794-2.39441,2.70275,2.70275,0,0,1,.79328-.92022,2.45964,2.45964,0,0,1,1.142-.41261,5.47008,5.47008,0,0,1,2.51277.42434,14.92925,14.92925,0,0,1,2.37551,1.16854,37.45757,37.45757,0,0,1,4.34046,3.07031c1.37161,1.10218,2.67428,2.24557,3.908,3.38317,2.46786,2.27506,4.66812,4.51051,6.5178,6.45874,1.74695,1.84489,3.17767,3.42466,4.20591,4.58427,1.31637,2.34858,2.82135,4.9245,4.41686,7.45293-.1506-.12778-.31224-.246-.45832-.378a21.6013,21.6013,0,0,0-2.62546-2.32254A6.77274,6.77274,0,0,0,176.4,27.9964a18.092,18.092,0,0,0-2.92729.22107c-3.59649.4187-5.99379.69781-5.99379.69781l6.00913-.552a18.07477,18.07477,0,0,1,2.8952-.14829,6.50966,6.50966,0,0,1,2.988,1.03852,21.61769,21.61769,0,0,1,2.52842,2.35494c.46052.43657.94878.85049,1.45267,1.24867q.30131.466.6053.92748A26.27249,26.27249,0,0,0,185.94593,36.37c.83942.97682,1.79,1.96864,2.80323,2.94666a27.73347,27.73347,0,0,1-2.43167-1.38618,23.1115,23.1115,0,0,1-2.83664-2.16057,21.67522,21.67522,0,0,0-2.62563-2.32353,6.78176,6.78176,0,0,0-3.13241-1.00573,18.21046,18.21046,0,0,0-2.92725.22016c-3.59643.4197-5.99383.69881-5.99383.69881s2.40348-.2208,6.00913-.55213a18.07539,18.07539,0,0,1,2.89529-.1483,6.5117,6.5117,0,0,1,2.98789,1.03852,21.61843,21.61843,0,0,1,2.52842,2.355,23.39661,23.39661,0,0,0,2.83264,2.26863,27.26433,27.26433,0,0,0,3.13,1.84884c.32641.16945.64922.30938.97265.45809a56.59887,56.59887,0,0,0,7.91769,5.99641c-.34074-.08231-.67959-.16625-1.03615-.24411-.98687-.28674-2.01911-.62608-3.09278-.95754a32.7892,32.7892,0,0,1-3.19606-1.31247,26.90019,26.90019,0,0,1-3.1098-1.7367,22.945,22.945,0,0,1-2.83665-2.16067,21.80758,21.80758,0,0,0-2.62595-2.3225,6.78208,6.78208,0,0,0-3.13241-1.00563,18.09778,18.09778,0,0,0-2.92736.22007c-3.59642.4197-5.99372.69881-5.99372.69881s2.40347-.22081,6.00913-.552a17.95476,17.95476,0,0,1,2.89513-.14929,6.523,6.523,0,0,1,2.98806,1.03951,21.53947,21.53947,0,0,1,2.52841,2.35495,23.47758,23.47758,0,0,0,2.83263,2.26853,27.40474,27.40474,0,0,0,3.13,1.84884,33.39,33.39,0,0,0,3.2204,1.4145c1.07947.36342,2.11726.73274,3.11407,1.04914,1.0183.2483,1.96566.54478,2.87039.70917.21289.0342.41963.07084.62337.1062.34426.17218.68023.33223.99889.46895a7.14,7.14,0,0,1,1.9541,1.40228,21.65639,21.65639,0,0,1,2.90911,3.54272,28.10284,28.10284,0,0,1,1.79838,3.08568l-5.95234-4.73979-.03275-.02613-.0292-.01155L189.5305,46.38886l12.2,5.69508,7.06565,6.09644a12.64463,12.64463,0,0,1,.47726,1.49226L202.31058,55.663l-.02-.0113-.01053-.00416-12.61871-5.341,12.36809,5.84167,7.44939,4.70522a3.27969,3.27969,0,0,1-.03493.84054,1.76774,1.76774,0,0,1-.13341.4266c-.18877.387-.33242.69157-.45039.94574l-5.27956-3.51908-.019-.01237-.00863-.0043L192.522,53.8566l10.74063,6.15976,5.23653,3.84668c-.31654.709-.05369.03713-1.71929,1.76634-.016.01628-.03627.02555-.05274.042l-4.14381-3.96262-.03045-.0291-.02646-.01385L193.86835,57.282l8.39221,4.78808,3.83858,4.05443a3.22056,3.22056,0,0,1-.52123.23407c-1.88755.61761-4.74413-.30207-7.82707-1.88891a62.24887,62.24887,0,0,1-6.60741-4.04289c-2.678-1.845-5.10973-3.7168-6.78033-5.00862L180.73059,46.982a3.56607,3.56607,0,0,0-3.85043-2.15373c-1.04939.18763-1.88461.84949-1.53685,2.61137a11.06493,11.06493,0,0,0,2.1225,3.71647,20.97092,20.97092,0,0,0-5.59955-.12039c-1.7589.23245-1.112,2.40474-.3824,3.99645a3.591,3.591,0,0,0,2.609,2.01634l8.94247,1.68082a52.72679,52.72679,0,0,0,5.32568,5.50424,39.66141,39.66141,0,0,0,8.95224,6.19853c3.832,1.84758,8.00254,2.74869,12.03894,1.51232,2.97149-.90957,5.86908-2.98283,8.50579-6.69115A34.26877,34.26877,0,0,0,220.95,59.85582,11.51964,11.51964,0,0,0,220.58878,49.60157ZM188.99,23.826a1.40292,1.40292,0,0,1,1.11842-.67329,1.32131,1.32131,0,0,1,.75434.16431,1.36976,1.36976,0,0,1,.50745,1.87237,1.40425,1.40425,0,0,1-1.8718.50841A1.37112,1.37112,0,0,1,188.99,23.826Z"/>
        <path class="abbb6a83-c665-4879-87f7-2a07b6ca824e" d="M318.474,41.22176c3.26555,1.157,6.664,8.71346,6.664,8.71346a37.09742,37.09742,0,0,0,.31484-5.23765c-.12464-1.79972-2.7972-3.65883-4.22066-5.72546a1.86147,1.86147,0,0,0-2.30672-.84894.96762.96762,0,0,0-.92737-.68478c-1.4351-.1-6.55393,3.97331-8.78236,5.8087-.25631-.40771-.51422-.67367-.73643-.60678a60.14617,60.14617,0,0,0-5.36642,3.4391,10.644,10.644,0,0,0-.38166-2.58526c2.572-.14574,6.23269-.7612,4.36352-3.16087a6.46707,6.46707,0,0,0,2.6587-7.33319c-.70607-2.49506-1.45309-2.94209-2.22641-2.54337.16236-1.78938.24226-5.0718-1.19987-6.19456a1.86313,1.86313,0,0,0-.666-.34428c-.47994-1.76538-1.4598-4.58706-3.11016-6.05393a13.23639,13.23639,0,0,0-6.41084-2.67168s4.40769,3.41222,5.49072,6.39077a19.25523,19.25523,0,0,0,1.39608,2.92885c-.90861.1763-2.05124.02737-3.73159-1.3288-4.07755-3.28969-4.59492-6.7107-4.59492-6.7107s-1.87869,5.32657.05323,8.21239c1.93277,2.88677,7.08,4.44643,8.192,5.46128a18.45807,18.45807,0,0,1,2.21513,2.82751,5.64789,5.64789,0,0,1-.56786.56064A3.84623,3.84623,0,0,0,303.54,36.97233c-.87039-.26651-1.62.37326-3.00361,1.93957a6.32029,6.32029,0,0,0-.57721.76454,14.30376,14.30376,0,0,0-2.91478-1.65448,1.75436,1.75436,0,0,0,.06991-.38119,1.36566,1.36566,0,0,0-1.122-1.54861,1.29483,1.29483,0,0,0-1.24908,1.08711,23.96316,23.96316,0,0,0-12.56133-.75508,1.29576,1.29576,0,0,0-1.11-1.22891,1.365,1.365,0,0,0-1.29843,1.40312,1.76119,1.76119,0,0,0,.02373.38682,14.32112,14.32112,0,0,0-3.094,1.29328,6.30545,6.30545,0,0,0-.48039-.82811c-1.187-1.72083-1.85469-2.4458-2.75072-2.28547a3.84557,3.84557,0,0,0-.63246-3.53943,5.73483,5.73483,0,0,1-.49666-.62372,18.41859,18.41859,0,0,1,2.53793-2.5427c1.22557-.87434,6.52253-1.80619,8.78718-4.44065,2.2637-2.63362,1.0366-8.14688,1.0366-8.14688s-.92343,3.3344-5.3656,6.112c-1.83081,1.14511-2.98294,1.1561-3.865.87216A19.15837,19.15837,0,0,0,277.212,20.1152c1.432-2.82737,6.21673-5.687,6.21673-5.687a13.23629,13.23629,0,0,0-6.68472,1.88449c-1.81509,1.25856-3.125,3.9426-3.813,5.63777a1.856,1.856,0,0,0-.70249.262c-1.56624.94192-1.88,4.21028-1.93326,6.00622-.72-.48848-1.51519-.13415-2.515,2.25836a6.46565,6.46565,0,0,0,1.76111,7.59887c-2.14318,2.15849,1.41657,3.208,3.95346,3.66081a10.65446,10.65446,0,0,0-.6886,2.52092,60.14946,60.14946,0,0,0-4.91581-4.05717c-.21261-.093-.50051.14012-.80381.5142-1.99343-2.08918-6.58747-6.74632-8.02319-6.8189a.96746.96746,0,0,0-1.00274.56876,1.86156,1.86156,0,0,0-2.3919.5665c-1.66078,1.88123-4.5368,3.40681-4.87611,5.17865a37.11041,37.11041,0,0,0-.31484,5.23764s4.27917-7.09582,7.65976-7.85244a30.48514,30.48514,0,0,0,7.37949,5.80976c-.0459.097-.07182.15317-.07182.15317s2.59528,3.16142,4.55423,4.03443a9.76487,9.76487,0,0,0,2.67765.83116c.0405.57958.09957,1.15847.17573,1.73137a67.71586,67.71586,0,0,0-6.90873-1.98843c-.20708.0101-.37123.34946-.5026.82483-2.331-1.01469-7.6533-3.2081-8.87054-2.6356a1.07761,1.07761,0,0,0-.64974.96274c-.64079.00066-1.40257.30409-1.804,1.5772-.77235,2.44927-2.6691,5.11476-2.3778,6.87662a37.9,37.9,0,0,0,1.43113,4.9023s1.25925-8.35259,3.82137-10.54751a23.05152,23.05152,0,0,0,8.01505,2.00794c-.00744.10715-.01025.1706-.01025.1706s3.17879,1.72214,5.08816,1.64516a5.82494,5.82494,0,0,0,3.28529-.87965c.17012.76648.35632,1.49377.5488,2.16483-2.64781-.301-6.38262-.69974-6.96724-.62528a.51166.51166,0,0,0-.2802.15336,1.48321,1.48321,0,0,0-.79682-.64367s-7.85063,4.453-8.40142,6.17792a1.12344,1.12344,0,0,0,.08356.98629,2.15829,2.15829,0,0,0-.39294,2.02888c.53184,2.39853.27048,5.62306,1.32532,6.85748a30.72987,30.72987,0,0,0,3.42721,3.07258s-3.14747-8.01971-1.73075-11.00067a28.69233,28.69233,0,0,0,5.52749-4.29518c-.01353.11169-.02069.18069-.02069.18069a22.33,22.33,0,0,0,6.35893.7521,16.6853,16.6853,0,0,0,2.93163-.57913,2.83085,2.83085,0,0,0,.57878.99943,2.8508,2.8508,0,0,1,.584.7014,27.1536,27.1536,0,0,0-2.92273-.21877.38783.38783,0,0,0-.2084.1137,1.10933,1.10933,0,0,0-.59537-.48s-5.86338,3.32508-6.27442,4.61333a.83232.83232,0,0,0,.068.74072,1.59526,1.59526,0,0,0-.29922,1.51117c.39717,1.79075.20255,4.19841.99051,5.11945a22.926,22.926,0,0,0,2.55928,2.2954s-2.351-5.98875-1.29258-8.21546a21.39728,21.39728,0,0,0,4.12653-3.20637c-.00984.08356-.01494.135-.01494.135a16.687,16.687,0,0,0,4.74934.56038,13.77411,13.77411,0,0,0,1.84456-.33232,20.0757,20.0757,0,0,0,16.00821.96227,13.77083,13.77083,0,0,0,1.79147.55088,16.687,16.687,0,0,0,4.78226.01258s.0012-.05173.00036-.13593a21.42777,21.42777,0,0,0,3.71372,3.67766c.78406,2.33746-2.2674,8.00147-2.2674,8.00147a22.92554,22.92554,0,0,0,2.81582-1.9723c.89261-.82.98781-3.23365,1.59663-4.96394a1.595,1.595,0,0,0-.117-1.53619.8323.8323,0,0,0,.15723-.72718c-.25376-1.32822-5.67662-5.33172-5.67662-5.33172a1.10964,1.10964,0,0,0-.64859.40522.38784.38784,0,0,0-.19317-.13784,27.1534,27.1534,0,0,0-2.928-.13293,2.85316,2.85316,0,0,1,.66378-.6264,2.84663,2.84663,0,0,0,.69433-.9229,16.66342,16.66342,0,0,0,2.84114.92614,22.33772,22.33772,0,0,0,6.40424.0151s.0011-.06835.00106-.181a28.714,28.714,0,0,0,4.97122,4.92536c1.05044,3.12927-3.035,10.7142-3.035,10.7142a30.73736,30.73736,0,0,0,3.77068-2.63991c1.195-1.09918,1.32182-4.33179,2.13713-6.64935a2.16074,2.16074,0,0,0-.14707-2.06134,1.12285,1.12285,0,0,0,.20111-.96917c-.3402-1.77852-7.60088-7.13984-7.60088-7.13984a1.48322,1.48322,0,0,0-.86819.54358.51129.51129,0,0,0-.25981-.18582c-.5715-.14395-4.32807-.19555-6.993-.21388.27149-.64317.54446-1.34285.80516-2.08345a5.82523,5.82523,0,0,0,3.15627,1.26687c1.88649.30515,5.24859-1.02381,5.24859-1.02381l.01026-.17059a23.05158,23.05158,0,0,0,8.19787-1.03337c2.28074,2.486,2.53047,10.92933,2.53047,10.92933a37.90591,37.90591,0,0,0,2.008-4.69558c.50125-1.71421-1.06355-4.58778-1.536-7.11188-.246-1.312-.96686-1.70458-1.60405-1.782a1.07649,1.07649,0,0,0-.52874-1.03359c-1.1399-.71419-6.68661.82587-9.12239,1.554-.07336-.48768-.19579-.84427-.40007-.87909a67.71617,67.71617,0,0,0-7.09728,1.14651c.14324-.55971.27223-1.1273.381-1.6979a9.779,9.779,0,0,0,2.75884-.50437c2.04942-.63207,5.00472-3.45984,5.00472-3.45984s-.019-.05885-.053-.16067A30.49668,30.49668,0,0,0,318.474,41.22176Z"/>
        <g>
          <path class="abbb6a83-c665-4879-87f7-2a07b6ca824e" d="M336.83818,79.945c20.0206-5.4134,29.4315-26.176,15.8132-39.7039-13.08009-12.9933.1202-29.6269,13.13391-11.4929C373.58248,39.61334,378.37,73.36374,336.83818,79.945Z"/>
          <path class="abbb6a83-c665-4879-87f7-2a07b6ca824e" d="M372.60578,78.84614c12.23851-.0242,17.2573-5.7036,18.7846-10.3432,1.5822-4.8059,9.9572-1.794,7.9853,3.7996C396.67848,79.95334,381.62548,81.28254,372.60578,78.84614Z"/>
          <path class="abbb6a83-c665-4879-87f7-2a07b6ca824e" d="M346.17478,79.98564c14.382-.9988,31.9223-9.8142,27.1729-20.6461-4.5616-10.4038,11.6682-17.7396,14.1718-4.2667C389.01938,63.14514,382.34668,82.31514,346.17478,79.98564Z"/>
        </g>
      </g>
    </g>
  </g>
</svg>
