<?xml version="1.0" standalone="no"?>
<!DOCTYPE svg PUBLIC "-//W3C//DTD SVG 20010904//EN"
 "http://www.w3.org/TR/2001/REC-SVG-20010904/DTD/svg10.dtd">
<svg version="1.0" xmlns="http://www.w3.org/2000/svg"
 width="205.000000pt" height="205.000000pt" viewBox="0 0 205.000000 205.000000"
 preserveAspectRatio="xMidYMid meet">
<metadata>
Created by potrace 1.14, written by Peter Selinger 2001-2017
</metadata>
<g transform="translate(0.000000,205.000000) scale(0.100000,-0.100000)"
fill="#000000" stroke="none">
<path d="M862 2034 c-325 -57 -596 -258 -738 -549 -31 -63 -69 -168 -80 -220
-19 -97 -22 -136 -20 -245 9 -426 276 -789 685 -929 115 -39 196 -50 346 -46
209 5 353 49 522 161 195 129 336 317 407 543 32 102 41 165 41 296 0 152 -14
232 -65 364 -120 311 -397 547 -724 617 -93 20 -282 24 -374 8z"/>
</g>
</svg>
